<svg xmlns="http://www.w3.org/2000/svg" version="1.1" xmlns:xlink="http://www.w3.org/1999/xlink" width="512" height="512" x="0" y="0" viewBox="0 0 512 512" style="enable-background:new 0 0 512 512" xml:space="preserve" class=""><g><path d="M373.619 383.862a174.992 174.992 0 0 0-74.542-39.917c29.452-15.532 49.577-46.462 49.577-82.009 0-51.089-41.563-92.653-92.652-92.653s-92.653 41.564-92.653 92.653c0 35.547 20.125 66.477 49.577 82.009a174.989 174.989 0 0 0-74.544 39.917c-32.049 28.983-52.221 68.505-56.798 111.286A8.004 8.004 0 0 0 89.538 504l332.925-.001a8 8 0 0 0 7.954-8.851c-4.578-42.781-24.75-82.304-56.798-111.286zm-99.15 79.794-18.468 20.418-18.469-20.418 12.763-61.874 5.706-6.765 5.705 6.765zm-18.508-109.068h.081c7.202.002 14.296.483 21.256 1.407l-21.296 16.495-21.297-16.495a161.771 161.771 0 0 1 21.256-1.407zm-11.452 29.239-19.067 22.607-23.783-42.385a158.756 158.756 0 0 1 12.301-3.883zm22.984 0 30.547-23.661c4.17 1.131 8.272 2.43 12.302 3.883l-23.783 42.385zm-88.144-121.891c0-42.267 34.387-76.653 76.653-76.653s76.652 34.387 76.652 76.653c0 42.258-34.372 76.637-76.626 76.652h-.053c-42.254-.015-76.626-34.394-76.626-76.652zm7.453 108.334 30.336 54.062a8 8 0 0 0 6.978 4.085 7.99 7.99 0 0 0 4.661-1.51l-7.733 37.49a7.994 7.994 0 0 0 1.902 6.982l15.033 16.62H98.687c8.577-52.561 42.36-95.762 88.115-117.729zm87.221 117.729 15.032-16.62a7.996 7.996 0 0 0 1.902-6.982l-7.733-37.49a7.996 7.996 0 0 0 5.418 1.474 8.001 8.001 0 0 0 6.221-4.049l30.336-54.062c45.753 21.968 79.537 65.168 88.115 117.729zM187.257 72.602l29.932 24.058-10.073 37.055c-1.219 4.48.421 9.139 4.177 11.869a11.051 11.051 0 0 0 6.508 2.134c2.102 0 4.208-.607 6.072-1.827L256 124.858l32.129 21.031c3.886 2.545 8.822 2.424 12.578-.305 3.757-2.729 5.397-7.387 4.18-11.868L294.812 96.66l29.929-24.056c3.62-2.907 5.032-7.64 3.599-12.057-1.435-4.418-5.359-7.418-9.997-7.644l-38.355-1.87-13.63-35.9h-.001C264.711 10.8 260.646 8 256.001 8c-4.646 0-8.711 2.8-10.357 7.133l-13.63 35.9-38.354 1.87c-4.639.226-8.562 3.226-9.997 7.643-1.436 4.416-.024 9.149 3.594 12.056zm48.751-5.744a11.071 11.071 0 0 0 9.82-7.132l10.173-26.794 10.173 26.795a11.074 11.074 0 0 0 9.816 7.131l28.624 1.396-22.337 17.954a11.079 11.079 0 0 0-3.75 11.541l7.519 27.654-23.979-15.696a11.077 11.077 0 0 0-12.133 0l-23.977 15.696 7.518-27.655a11.072 11.072 0 0 0-3.75-11.54l-22.338-17.954zM48.968 227.197l32.129-21.033 32.131 21.034a11.048 11.048 0 0 0 6.069 1.825c2.28 0 4.555-.714 6.51-2.135 3.755-2.729 5.395-7.389 4.176-11.866l-10.074-37.056 29.933-24.058c3.617-2.908 5.028-7.641 3.595-12.057-1.435-4.415-5.357-7.415-9.996-7.643l-38.356-1.87-13.63-35.9c-1.646-4.333-5.71-7.133-10.356-7.133-4.647 0-8.712 2.801-10.356 7.133l-13.63 35.9-38.358 1.87c-4.637.228-8.56 3.228-9.994 7.643-1.434 4.416-.022 9.148 3.596 12.057l29.932 24.057-10.078 37.055c-1.219 4.48.421 9.139 4.177 11.868 3.758 2.732 8.694 2.852 12.58.309zm-16.487-77.638 28.624-1.396a11.077 11.077 0 0 0 9.819-7.132l10.172-26.792 10.173 26.793a11.074 11.074 0 0 0 9.816 7.131l28.626 1.396-22.335 17.952a11.074 11.074 0 0 0-3.754 11.543l7.519 27.655L87.16 191.01a11.077 11.077 0 0 0-12.131.002l-23.978 15.697 7.518-27.655a11.08 11.08 0 0 0-3.749-11.541zm470.927-4.887c-1.202-4.488-4.959-7.691-9.572-8.159l-38.205-3.874-11.732-36.563c-1.418-4.422-5.331-7.437-9.969-7.68-4.621-.225-8.844 2.346-10.716 6.594l-15.491 35.139-38.402-.141h-.039c-4.627 0-8.683 2.787-10.342 7.109-1.663 4.335-.501 9.135 2.961 12.229l28.63 25.59-12.001 36.48c-1.449 4.41-.054 9.147 3.555 12.068 3.607 2.92 8.528 3.301 12.544.964l33.186-19.321 30.983 22.684a11.042 11.042 0 0 0 6.539 2.158c2.089 0 4.184-.6 6.04-1.806 3.895-2.529 5.775-7.097 4.793-11.632l-8.122-37.533 31.15-22.458c3.759-2.71 5.411-7.361 4.21-11.848zm-47.331 23.212a11.076 11.076 0 0 0-4.35 11.328l6.062 28.011-23.124-16.93a11.065 11.065 0 0 0-6.545-2.14c-1.919 0-3.844.498-5.573 1.505l-24.767 14.42 8.956-27.225a11.078 11.078 0 0 0-3.141-11.721l-21.367-19.099 28.662.105h.035c4.389 0 8.365-2.591 10.138-6.608l11.561-26.224 8.758 27.291a11.078 11.078 0 0 0 9.43 7.633l28.513 2.892zm-374.98 94.663a8 8 0 0 1 8 8v16.613a8 8 0 0 1-16 0v-16.613a8 8 0 0 1 8-8zm32.63 32.63a8 8 0 0 1 0 16H97.113a8 8 0 0 1 0-16zm-40.647 8a8 8 0 0 1-8 8H48.467a8 8 0 0 1 0-16H65.08a8 8 0 0 1 8 8zm8.017 40.63a8 8 0 0 1-8-8v-16.613a8 8 0 0 1 16 0v16.613a8 8 0 0 1-8 8zm317.266-32.63a8 8 0 0 1 0-16h16.613a8 8 0 0 1 0 16zm40.63 8.017v16.613a8 8 0 0 1-16 0v-16.613a8 8 0 0 1 16 0zm32.631-16.017a8 8 0 0 1-8 8h-16.613a8 8 0 0 1 0-16h16.613a8 8 0 0 1 8 8zm-32.631-32.63v16.613a8 8 0 0 1-16 0v-16.613a8 8 0 0 1 16 0z" fill="#000000" opacity="1" data-original="#000000"></path></g></svg>