<svg xmlns="http://www.w3.org/2000/svg" version="1.1" xmlns:xlink="http://www.w3.org/1999/xlink" width="512" height="512" x="0" y="0" viewBox="0 0 340 340" style="enable-background:new 0 0 512 512" xml:space="preserve" class=""><g><path d="M105.871 163.8c-10.742-7.9-23.394-11.538-23.921-11.709a3.352 3.352 0 0 0-4.458 3.366v27.279A3.5 3.5 0 0 0 80 186.1a81.446 81.446 0 0 1 21.738 10.5c3.006 1.559 5.561-.512 5.561-2.828v-27.15a3.5 3.5 0 0 0-1.428-2.822zm-5.571 23.6a87.86 87.86 0 0 0-15.8-7.221v-19.826a76.482 76.482 0 0 1 15.8 8.075zM80.219 83.8c1.088.246 3.838.911 4.134.911 3.991.049 4.814-5.889.889-6.886q-1.725-.454-3.477-.852a3.5 3.5 0 0 0-1.546 6.827zM104.236 92.462c22.528 9.993 38.595 27.354 38.754 27.528a4.129 4.129 0 0 0 4.945.217 3.411 3.411 0 0 0 .219-4.943c-.689-.754-17.169-18.594-41.079-29.2a3.5 3.5 0 0 0-2.839 6.398zM80.219 109.659c35.23 7.981 62.544 35.987 62.833 36.251A3.445 3.445 0 0 0 148 146a3.6 3.6 0 0 0 .092-4.947c-1.166-1.212-29.009-29.767-66.326-38.222a3.5 3.5 0 0 0-1.547 6.828zM81.766 128.686a3.5 3.5 0 0 0-1.547 6.828c35.23 7.981 62.561 35.969 62.833 36.251a3.99 3.99 0 0 0 4.948.09 3.419 3.419 0 0 0 .092-4.947c-1.166-1.208-29.009-29.767-66.326-38.222zM122.73 172.521a3.5 3.5 0 0 0-3.4 6.118c12.46 6.929 23.568 18.813 23.678 18.932.69.743 3.26 1.675 4.946.184a3.47 3.47 0 0 0 .186-4.945c-.484-.519-11.956-12.81-25.41-20.289zM122.729 198.376a3.5 3.5 0 0 0-3.4 6.118c12.46 6.928 23.568 18.813 23.678 18.932.69.743 3.309 1.675 4.946.184a3.488 3.488 0 0 0 .186-4.945c-.483-.519-11.955-12.808-25.41-20.289z" fill="#000000" opacity="1" data-original="#000000" class=""></path><path d="M331.105 110.864a165.877 165.877 0 0 0-17.241-7.434 3.5 3.5 0 1 0-2.381 6.584c4.83 1.768 9.684 3.8 14.539 6.15v178.714c-56.72-25.19-111-16.436-153 .141v-178.8c2.356-1.052 6.788-2.924 12.884-5.037a3.513 3.513 0 1 0-2.285-6.643c-5.667 1.964-9.958 3.737-12.605 4.9C147.494 73.049 110.034 45 45.007 39.152a3.485 3.485 0 0 0-3.753 3.492v56c-5.922 1.636-20.582 6.013-32.444 12.261a3.472 3.472 0 0 0-1.832 3.078v215.85a3.585 3.585 0 0 0 4.456 3.49c86.576-24.221 145.229-3.136 158.1-.1 12.876-3.027 72.5-24.12 159.029.1 2.867.533 4.456-.931 4.456-3.469V113.986a3.49 3.49 0 0 0-1.914-3.122zm-317.127 5.264a174.741 174.741 0 0 1 27.276-10.2v122.84a3.5 3.5 0 0 0 3.249 3.491c59.423 5.418 92.651 28.917 116.473 60.7-43.463-15.263-90.383-22.42-147 1.919zm152.044 208.926c-44.022-12.282-88.592-15.48-152.044.306v-7.487c67.98-29.651 141.1-4.207 152.044-.072zm0-14.728c-40.945-14.009-97.511-22.174-152.044-.067V302.6c54.679-26.458 113.444-16.715 152.044.048zm0-22.4c-4.548-6.351-36.4-56.489-117.768-62.39V46.44c59.8 5.692 98.087 35.323 117.768 68.407zm160 37.433c-52.979-15.515-117.215-11.545-153-.288v-7.189c10.3-3.885 84.571-29.854 153-.01zm0-15.1c-54.437-22.179-112.194-13.839-153 .153v-7.749c12.5-5.553 83.087-33.867 153-.061z" fill="#000000" opacity="1" data-original="#000000" class=""></path><path d="M327.259 60.386c-1.1-19.9-20.15-35.628-39.87-32.752-15.515-28.043-57.22-28.093-72.833-.118-43.269-3.948-54.056 60.265-13.678 70.05a9.856 9.856 0 0 1 8.105 9.615v45.859a15.267 15.267 0 0 0 15.25 15.25h53.407a15.267 15.267 0 0 0 15.25-15.25V107.3a9.828 9.828 0 0 1 7.631-9.513c15.567-3.759 27.811-20.887 26.738-37.401zM277.64 161.29h-53.407c-6.13-.221-8.815-5.138-8.25-10.81 5.224 1.514 15.893 3.549 35.532 3.549 18.992 0 29.334-.565 34.374-.979a8.259 8.259 0 0 1-8.249 8.24zm21.244-70.312c-.124.029-9.369 2.165-23.661 1.529-4.627-.11-4.911 6.68-.313 6.993a122.958 122.958 0 0 0 12.975-.1 16.589 16.589 0 0 0-2 7.893v38.724c-2.258.2-5.948.448-11.528.651v-24.322a3.5 3.5 0 0 0-7 0v24.526c-3.588.078-7.718.132-12.436.15v-24.676a3.5 3.5 0 0 0-7 0V147c-4.74-.067-8.866-.26-12.437-.532v-24.122a3.5 3.5 0 0 0-7 0v23.419a59.512 59.512 0 0 1-12.506-2.656v-35.928a17 17 0 0 0-13.705-16.474C187.846 87.762 182.7 74.33 182.7 62.743a28.4 28.4 0 0 1 29.278-28.361 41.267 41.267 0 0 0-.833 8.807c.139 4.606 6.957 4.534 7-.066a29.6 29.6 0 0 1 1.525-10.339c12.592-25.731 50.221-25.61 62.632.2a27.817 27.817 0 0 1 1.518 10.134c.018 4.591 6.886 4.67 7 .066a40.051 40.051 0 0 0-.832-8.762c15.306-1.309 29.4 11.084 30.282 26.413.855 13.103-9.141 27.185-21.386 30.143zM277.352 224.655a21.792 21.792 0 0 0 17.955-5.158l10.707-9.411a3.5 3.5 0 1 0-4.621-5.257l-10.707 9.411c-8.861 7.684-16.384-.446-26.918 6.3l-3.967-3.034a21.8 21.8 0 0 0 5.739-12.333 15.761 15.761 0 0 1 5.023-11.117l11.892-10.725a3.5 3.5 0 1 0-4.687-5.2l-11.893 10.724c-9.931 8.747-4.272 17.056-11.676 24.367l-43.35-33.145a3.5 3.5 0 0 0-5.551 2.058c-5.784 25.338 4.374 43.912 26.94 48.678l-25.009 19.121c-8.98 7.385 1 20.72 10.611 14.186l29.094-21.184c3.667-2.765-.351-8.307-4.122-5.659l-29.1 21.191a1.858 1.858 0 0 1-2.228-2.974l30.525-23.338c3.46 0 6.928.551 9.676 2.674l39.915 29.286a8.858 8.858 0 0 0 10.62-14.178l-32.2-24.62a14.869 14.869 0 0 1 7.332-.663zm20.613 30.845a1.857 1.857 0 0 1 .405 2.523 1.8 1.8 0 0 1-2.633.45l-39.915-29.283a20.463 20.463 0 0 0-11.643-3.942c-19.745-.378-36.679-10.438-32.983-36.089z" fill="#000000" opacity="1" data-original="#000000" class=""></path><path d="M271.079 212.337a3.5 3.5 0 0 0 4.934.394l17.641-15.031a3.5 3.5 0 0 0-4.539-5.329L271.474 207.4a3.5 3.5 0 0 0-.395 4.937z" fill="#000000" opacity="1" data-original="#000000" class=""></path></g></svg>