<svg xmlns="http://www.w3.org/2000/svg" version="1.1" xmlns:xlink="http://www.w3.org/1999/xlink" width="512" height="512" x="0" y="0" viewBox="0 0 173.397 173.397" style="enable-background:new 0 0 512 512" xml:space="preserve" fill-rule="evenodd"><g><path d="M36.821 83.246a1.783 1.783 0 0 1-1.782-1.782V22.228c0-.984.798-1.782 1.782-1.782h76.997a1.782 1.782 0 0 1 0 3.564H38.603v57.454c0 .984-.798 1.782-1.782 1.782zm112.897 58.617a1.783 1.783 0 0 1-1.782-1.782V58.128a1.782 1.782 0 0 1 3.564 0v81.953c0 .984-.798 1.782-1.782 1.782zm0 20.215H36.821a1.778 1.778 0 0 1-1.782-1.782v-26.517a1.782 1.782 0 0 1 3.564 0v24.735h109.333v-4.195a1.782 1.782 0 0 1 3.564 0v5.977c0 .984-.798 1.782-1.782 1.782zM120.507 85.746H62.979a1.78 1.78 0 0 1-1.782-1.782c0-.987.795-1.782 1.782-1.782h57.528a1.782 1.782 0 0 1 0 3.564zM101.667 109.404H62.979a1.78 1.78 0 0 1-1.782-1.782 1.78 1.78 0 0 1 1.782-1.782h38.688a1.78 1.78 0 0 1 1.782 1.782 1.78 1.78 0 0 1-1.782 1.782zM102.954 133.062H62.979a1.78 1.78 0 0 1-1.782-1.782 1.78 1.78 0 0 1 1.782-1.782h39.975a1.782 1.782 0 0 1 0 3.564z" fill="#000000" opacity="1" data-original="#000000"></path><path d="M34.148 131.997h5.344v-3.242c0-.845.59-1.572 1.416-1.745a19.61 19.61 0 0 0 6.732-2.79 1.78 1.78 0 0 1 2.234.231l2.293 2.296 3.777-3.777-2.293-2.296a1.78 1.78 0 0 1-.232-2.234 19.61 19.61 0 0 0 2.79-6.732c.174-.826.901-1.417 1.746-1.417h3.242v-5.343h-3.242c-.845 0-1.572-.59-1.745-1.413a19.606 19.606 0 0 0-2.791-6.732 1.78 1.78 0 0 1 .232-2.234l2.293-2.296-3.777-3.777-2.293 2.295a1.788 1.788 0 0 1-2.237.232 19.535 19.535 0 0 0-6.729-2.79 1.785 1.785 0 0 1-1.417-1.745v-3.242h-5.343v3.242c0 .842-.59 1.572-1.414 1.745a19.556 19.556 0 0 0-6.732 2.79 1.783 1.783 0 0 1-2.233-.231l-2.296-2.296-3.777 3.777 2.295 2.296a1.78 1.78 0 0 1 .23 2.234 19.612 19.612 0 0 0-2.788 6.732 1.785 1.785 0 0 1-1.745 1.413h-3.242v5.343h3.24c.844 0 1.57.591 1.743 1.417a19.684 19.684 0 0 0 2.791 6.732 1.78 1.78 0 0 1-.232 2.234l-2.292 2.296 3.777 3.777 2.296-2.296a1.78 1.78 0 0 1 2.233-.232 19.614 19.614 0 0 0 6.732 2.791c.823.173 1.414.9 1.414 1.745zm5.44 3.564h-5.536a3.473 3.473 0 0 1-3.468-3.468v-1.937a23.166 23.166 0 0 1-5.287-2.193l-1.374 1.37a3.468 3.468 0 0 1-4.9 0l-3.916-3.913a3.47 3.47 0 0 1 0-4.904l1.373-1.37a22.977 22.977 0 0 1-2.194-5.29h-1.94a3.47 3.47 0 0 1-3.464-3.466v-5.538a3.472 3.472 0 0 1 3.464-3.468h1.94a23.146 23.146 0 0 1 2.194-5.287l-1.373-1.37a3.47 3.47 0 0 1 0-4.904l3.916-3.917a3.473 3.473 0 0 1 4.9 0l1.375 1.374a23.15 23.15 0 0 1 5.286-2.193V83.15a3.472 3.472 0 0 1 3.468-3.468h5.536a3.472 3.472 0 0 1 3.467 3.468v1.936a23.1 23.1 0 0 1 5.287 2.194l1.375-1.374a3.47 3.47 0 0 1 4.902 0l3.914 3.917a3.471 3.471 0 0 1 0 4.904l-1.37 1.37c.95 1.67 1.683 3.44 2.193 5.287h1.937a3.47 3.47 0 0 1 3.465 3.468v5.538a3.47 3.47 0 0 1-3.465 3.465h-1.94a23.184 23.184 0 0 1-2.19 5.29l1.37 1.371a3.471 3.471 0 0 1 0 4.904l-3.913 3.913a3.437 3.437 0 0 1-2.454 1.015 3.448 3.448 0 0 1-2.45-1.015l-1.37-1.37a23.13 23.13 0 0 1-5.291 2.193v1.937a3.473 3.473 0 0 1-3.467 3.468z" fill="#000000" opacity="1" data-original="#000000"></path><path d="M36.821 96.299c-6.246 0-11.323 5.08-11.323 11.323s5.077 11.323 11.323 11.323c6.244 0 11.323-5.08 11.323-11.323 0-6.244-5.08-11.323-11.323-11.323zm0 26.21c-8.21 0-14.887-6.68-14.887-14.887 0-8.211 6.676-14.887 14.887-14.887 8.208 0 14.887 6.676 14.887 14.887 0 8.207-6.68 14.887-14.887 14.887zM120.959 98.118c-5.207 0-10.414 1.983-14.377 5.946-7.926 7.926-7.926 20.824 0 28.75 3.964 3.963 9.17 5.946 14.377 5.946 5.207 0 10.41-1.98 14.376-5.946 7.927-7.926 7.927-20.824 0-28.75-3.962-3.963-9.17-5.946-14.376-5.946zm0 44.203c-6.12 0-12.239-2.326-16.895-6.986-9.318-9.315-9.318-24.474 0-33.793 9.315-9.315 24.475-9.315 33.79 0 9.318 9.319 9.318 24.478 0 33.793-4.656 4.66-10.776 6.986-16.895 6.986zM141.944 139.425h.003zm3.56.31c-.834 0-1.667.315-2.301.95a3.228 3.228 0 0 0-.947 2.298c0 .872.337 1.69.947 2.299l12.205 12.204a3.253 3.253 0 0 0 4.597 0 3.253 3.253 0 0 0 0-4.597l-12.201-12.205a3.24 3.24 0 0 0-2.3-.95zm12.202 22.262a6.766 6.766 0 0 1-4.82-1.99l-12.201-12.204a6.77 6.77 0 0 1-1.993-4.82c0-1.822.708-3.536 1.992-4.82a6.779 6.779 0 0 1 4.82-1.99c1.823 0 3.533.709 4.817 1.99l12.206 12.205a6.767 6.767 0 0 1 1.989 4.82 6.764 6.764 0 0 1-1.99 4.82 6.766 6.766 0 0 1-4.82 1.99z" fill="#000000" opacity="1" data-original="#000000"></path><path d="M141.944 141.207c-.455 0-.913-.176-1.26-.523l-5.348-5.349a1.783 1.783 0 0 1 0-2.521 1.785 1.785 0 0 1 2.518 0l5.35 5.349a1.783 1.783 0 0 1-1.26 3.044zM131.747 113.209h-21.576a1.783 1.783 0 0 1 0-3.564h21.576a1.782 1.782 0 0 1 0 3.564zM131.747 127.233h-21.576a1.783 1.783 0 0 1 0-3.564h21.576a1.782 1.782 0 0 1 0 3.564zM65.85 68.019h21.923V35.83H65.85zm23.705 3.564H64.068a1.783 1.783 0 0 1-1.782-1.782V34.049c0-.984.798-1.782 1.782-1.782h25.487c.983 0 1.781.798 1.781 1.782v35.752c0 .983-.798 1.782-1.781 1.782zM133.359 14.883c-13.069 0-23.705 10.634-23.705 23.705 0 13.07 10.636 23.704 23.704 23.704 13.072 0 23.708-10.633 23.708-23.704s-10.636-23.705-23.707-23.705zm0 50.973c-15.036 0-27.269-12.233-27.269-27.268 0-15.036 12.233-27.269 27.268-27.269 15.04 0 27.272 12.233 27.272 27.269 0 15.035-12.233 27.268-27.271 27.268z" fill="#000000" opacity="1" data-original="#000000"></path><path d="M125.08 50.418a1.78 1.78 0 0 1-1.263-3.041l20.101-20.1a1.779 1.779 0 0 1 2.518 0 1.783 1.783 0 0 1 0 2.521l-20.097 20.097c-.35.35-.804.523-1.259.523z" fill="#000000" opacity="1" data-original="#000000"></path><path d="M125.077 50.418a1.781 1.781 0 0 1-1.72-1.32l-3.536-13.196a1.785 1.785 0 0 1 1.262-2.184 1.78 1.78 0 0 1 2.18 1.262l3.537 13.195c.254.95-.31 1.928-1.26 2.185-.154.04-.309.058-.463.058z" fill="#000000" opacity="1" data-original="#000000"></path></g></svg>