<svg xmlns:xlink="http://www.w3.org/1999/xlink" xmlns="http://www.w3.org/2000/svg" width="30" height="30" viewBox="0 0 30 30" fill="none"><path d="M8.625 25.75C10.5 26.875 12.75 27.5 15 27.5C21.875 27.5 27.5 21.875 27.5 15C27.5 8.125 21.875 2.5 15 2.5C8.125 2.5 2.5 8.125 2.5 15C2.5 17.25 3.125 19.375 4.125 21.25L2.94044 25.806C2.74572 26.5549 3.43892 27.2317 4.18299 27.0191L8.625 25.75Z" stroke="#F5562C" stroke-width="1.5px" stroke-miterlimit="10" stroke-linecap="round" stroke-linejoin="round" fill-opacity="0" fill="#F5562C"></path><path d="M20.625 18.5606C20.625 18.7631 20.5799 18.9713 20.4842 19.1738C20.3884 19.3763 20.2645 19.5675 20.1011 19.7475C19.8251 20.0513 19.5208 20.2706 19.1772 20.4113C18.8392 20.5519 18.473 20.625 18.0787 20.625C17.5041 20.625 16.89 20.49 16.2422 20.2144C15.5943 19.9388 14.9465 19.5675 14.3043 19.1006C13.6564 18.6281 13.0424 18.105 12.4565 17.5256C11.8763 16.9406 11.3523 16.3275 10.8848 15.6863C10.4228 15.045 10.051 14.4038 9.78061 13.7681C9.5102 13.1269 9.375 12.5137 9.375 11.9287C9.375 11.5462 9.4426 11.1806 9.5778 10.8431C9.71301 10.5 9.92708 10.185 10.2257 9.90375C10.5862 9.54938 10.9805 9.375 11.3974 9.375C11.5551 9.375 11.7129 9.40875 11.8537 9.47625C12.0002 9.54375 12.1298 9.645 12.2312 9.79125L13.5381 11.6306C13.6395 11.7713 13.7128 11.9006 13.7635 12.0244C13.8142 12.1425 13.8423 12.2606 13.8423 12.3675C13.8423 12.5025 13.8029 12.6375 13.724 12.7669C13.6508 12.8962 13.5438 13.0312 13.4086 13.1662L12.9804 13.6106C12.9184 13.6725 12.8903 13.7456 12.8903 13.8356C12.8903 13.8806 12.8959 13.92 12.9072 13.965C12.9241 14.01 12.941 14.0437 12.9522 14.0775C13.0536 14.2631 13.2283 14.505 13.4762 14.7975C13.7297 15.09 14.0001 15.3881 14.293 15.6863C14.5972 15.9844 14.8901 16.26 15.1887 16.5131C15.4817 16.7606 15.7239 16.9294 15.9154 17.0306C15.9436 17.0419 15.9774 17.0587 16.0168 17.0756C16.0619 17.0925 16.107 17.0981 16.1577 17.0981C16.2534 17.0981 16.3267 17.0644 16.3886 17.0025L16.8168 16.5806C16.9576 16.44 17.0928 16.3331 17.2224 16.2656C17.352 16.1869 17.4815 16.1475 17.6224 16.1475C17.7294 16.1475 17.8421 16.17 17.966 16.2206C18.0899 16.2713 18.2195 16.3444 18.3604 16.44L20.225 17.7619C20.3715 17.8631 20.4729 17.9812 20.5349 18.1219C20.5912 18.2625 20.625 18.4031 20.625 18.5606Z" stroke="#F5562C" stroke-width="1.5px" stroke-miterlimit="10" fill-opacity="0" fill="#F5562C"></path></svg>