<svg xmlns:xlink="http://www.w3.org/1999/xlink" xmlns="http://www.w3.org/2000/svg" width="30" height="30" viewBox="0 0 30 30" fill="none"><path d="M11.25 27.5H18.75C25 27.5 27.5 25 27.5 18.75V11.25C27.5 5 25 2.5 18.75 2.5H11.25C5 2.5 2.5 5 2.5 11.25V18.75C2.5 25 5 27.5 11.25 27.5Z" stroke="#F5562C" stroke-width="1.5px" stroke-linecap="round" stroke-linejoin="round" fill-opacity="0" fill="#F5562C"></path><path d="M15 19.375C17.4162 19.375 19.375 17.4162 19.375 15C19.375 12.5838 17.4162 10.625 15 10.625C12.5838 10.625 10.625 12.5838 10.625 15C10.625 17.4162 12.5838 19.375 15 19.375Z" stroke="#F5562C" stroke-width="1.5px" stroke-linecap="round" stroke-linejoin="round" fill-opacity="0" fill="#F5562C"></path><path d="M22.0451 8.75H22.0596" stroke="#F5562C" stroke-width="2px" stroke-linecap="round" stroke-linejoin="round" fill-opacity="0" fill="#F5562C"></path></svg>