<svg xmlns:xlink="http://www.w3.org/1999/xlink" xmlns="http://www.w3.org/2000/svg" width="50" height="54" viewBox="0 0 50 54" fill="none"><circle cx="25" cy="20" r="20" fill="#F5562C"></circle><path fill-rule="evenodd" clip-rule="evenodd" d="M13.3658 7.43319C13.2105 7.44303 13.0643 7.5099 12.9553 7.62095C12.8463 7.732 12.7822 7.8794 12.7753 8.03485L12.0175 21.851C11.9386 23.2715 12.4741 24.331 13.2064 25.0399C13.8314 25.6421 14.5464 25.9799 15.183 26.3187L14.3053 47.3315C14.2191 49.406 16.0186 51.0465 18.0936 51.0465C20.1703 51.0465 21.9675 49.406 21.8808 47.3315L21.0008 26.3187C21.6408 25.9804 22.3586 25.6421 22.983 25.0399C23.7153 24.331 24.2441 23.2715 24.1691 21.851L23.4136 8.03485C23.4044 7.86799 23.3293 7.71161 23.2048 7.60013C23.0803 7.48865 22.9166 7.4312 22.7497 7.44041C22.5828 7.44962 22.4265 7.52474 22.315 7.64924C22.2035 7.77374 22.146 7.93743 22.1553 8.1043L22.9136 21.921C22.9741 23.0232 22.6358 23.6193 22.1064 24.1321C21.5736 24.6465 20.8041 25.0232 20.0547 25.4332C19.8436 25.5465 19.7164 25.7715 19.728 26.0093L20.6219 47.3804C20.6769 48.6943 19.5169 49.7876 18.0936 49.7876C16.6725 49.7876 15.5091 48.6943 15.5647 47.3804L16.4586 26.0093C16.4635 25.8926 16.4357 25.7768 16.3784 25.6751C16.321 25.5733 16.2365 25.4895 16.1341 25.4332C15.3841 25.0226 14.6119 24.6465 14.0803 24.1321C13.5475 23.6193 13.2147 23.0232 13.2753 21.921L14.0303 8.1043C14.0363 8.01517 14.0233 7.92578 13.9922 7.84205C13.961 7.75833 13.9124 7.6822 13.8496 7.61872C13.7867 7.55523 13.7111 7.50586 13.6277 7.47387C13.5443 7.44188 13.455 7.42801 13.3658 7.43319Z" fill="#444444" stroke="#444444" stroke-width="0.5px"></path><path fill-rule="evenodd" clip-rule="evenodd" d="M16.5194 7.43316C16.3525 7.43579 16.1936 7.50457 16.0774 7.62437C15.9612 7.74418 15.8974 7.9052 15.8999 8.07205V18.9115C15.8965 18.9963 15.9103 19.0809 15.9404 19.1602C15.9706 19.2396 16.0165 19.312 16.0755 19.373C16.1344 19.4341 16.2051 19.4826 16.2833 19.5155C16.3615 19.5485 16.4456 19.5653 16.5305 19.5648C16.6152 19.565 16.699 19.548 16.777 19.5149C16.8549 19.4818 16.9253 19.4333 16.984 19.3722C17.0427 19.3112 17.0885 19.2389 17.1185 19.1597C17.1486 19.0805 17.1623 18.9961 17.1588 18.9115V8.07205C17.1603 7.98771 17.1447 7.90394 17.1131 7.82575C17.0814 7.74755 17.0344 7.67652 16.9747 7.6169C16.915 7.55728 16.8439 7.51029 16.7657 7.47872C16.6875 7.44715 16.6037 7.43166 16.5194 7.43316ZM19.6499 7.43316C19.5668 7.43366 19.4846 7.45063 19.4081 7.48309C19.3316 7.51555 19.2623 7.56285 19.2042 7.62226C19.1461 7.68167 19.1003 7.75201 19.0695 7.82921C19.0388 7.90641 19.0236 7.98895 19.0249 8.07205V18.9115C19.0205 18.9973 19.0336 19.0831 19.0634 19.1636C19.0932 19.2442 19.1391 19.3179 19.1983 19.3802C19.2574 19.4425 19.3286 19.492 19.4076 19.5259C19.4865 19.5598 19.5715 19.5773 19.6574 19.5773C19.7433 19.5773 19.8283 19.5598 19.9073 19.5259C19.9862 19.492 20.0574 19.4425 20.1166 19.3802C20.1758 19.3179 20.2217 19.2442 20.2514 19.1636C20.2812 19.0831 20.2943 18.9973 20.2899 18.9115V8.07205C20.2913 7.98768 20.2757 7.9039 20.244 7.8257C20.2123 7.74751 20.1651 7.67649 20.1054 7.61687C20.0457 7.55726 19.9746 7.51027 19.8964 7.47871C19.8181 7.44715 19.7343 7.43166 19.6499 7.43316ZM30.9083 8.24538C31.2127 8.14983 31.8549 8.30594 32.5866 9.0326C34.3399 10.7743 36.7533 14.1426 36.7533 19.9815C36.7533 25.3637 35.5494 28.512 33.8799 30.1698C33.8154 30.2341 33.7657 30.3117 33.7342 30.3972C33.7027 30.4827 33.6903 30.574 33.6977 30.6648L34.9388 47.3776C34.991 48.0665 34.7566 48.4887 34.3516 48.8159C33.9494 49.1426 33.3333 49.337 32.6988 49.337C32.0655 49.3398 31.4322 49.1493 30.9888 48.8137C30.5488 48.4754 30.2772 48.032 30.2772 47.332V9.86316C30.2772 9.28983 30.376 8.8826 30.5033 8.63372C30.6283 8.3876 30.7549 8.29205 30.9083 8.24538ZM30.5294 7.04205C30.0438 7.19872 29.6327 7.57205 29.3833 8.06038C29.1316 8.54927 29.016 9.14872 29.016 9.86372V47.3315C29.016 48.3987 29.5166 49.2759 30.2288 49.817C30.9377 50.3587 31.826 50.5987 32.7055 50.5954C33.5822 50.592 34.4677 50.3465 35.1477 49.7943C35.8305 49.2387 36.2738 48.3448 36.1955 47.2882L34.9655 30.7204C36.8322 28.6804 38.0122 25.3209 38.0122 19.9826C38.0122 13.7937 35.4027 10.0582 33.4749 8.1426C32.5577 7.23038 31.5077 6.73538 30.5294 7.04205Z" fill="#444444" stroke="#444444" stroke-width="0.5px"></path></svg>